<svg xmlns="http://www.w3.org/2000/svg" viewBox="0 0 24 24"><path fill="#1B5E18" d="M13.3 2.004c-.214-.016-.456.023-.67.098-.872.29-1.325 1.218-1.036 2.086l.695 2.04-3.94 1.32-.648-1.97c-.29-.867-1.22-1.32-2.086-1.03-.867.288-1.348 1.218-1.055 2.085l.65 1.945-2.043.695c-.867.29-1.32 1.247-1.03 2.114.29.867 1.217 1.32 2.085 1.03l2.04-.67 1.32 3.91-1.97.648c-.867.29-1.32 1.218-1.03 2.086.292.87 1.222 1.35 2.09 1.06l1.947-.65.695 2.04c.29.868 1.243 1.32 2.11 1.03.87-.287 1.32-1.217 1.035-2.084l-.67-2.04 3.913-1.32.65 1.97c.29.867 1.217 1.32 2.085 1.03.867-.288 1.343-1.222 1.054-2.085l-.65-1.944 2.04-.696c.868-.298 1.325-1.25 1.03-2.118-.29-.867-1.22-1.32-2.084-1.03l-2.04.67-1.32-3.91 1.97-.648c.867-.29 1.324-1.22 1.03-2.086-.288-.867-1.218-1.348-2.085-1.06l-1.946.65-.696-2.04c-.22-.648-.8-1.076-1.44-1.128zm.024 7.367l1.32 3.91-3.914 1.327-1.32-3.91z"/></svg>
