<svg xmlns="http://www.w3.org/2000/svg" viewBox="0 0 911 345" xmlns:xlink="http://www.w3.org/1999/xlink"><defs><path id="a" d="M0 0h911v345H0z"/><linearGradient id="b" x1="2.498%" x2="99.764%" y1="2.474%" y2="98.786%"><stop stop-color="#22D56D" offset="0%"/><stop stop-color="#72FFC7" offset="100%"/></linearGradient><filter id="d" width="119.9%" height="117.4%" x="-9.9%" y="-8.7%" filterUnits="objectBoundingBox"><feGaussianBlur stdDeviation="10" in="SourceGraphic"/></filter><filter id="e" width="119.9%" height="117.4%" x="-9.9%" y="-8.7%" filterUnits="objectBoundingBox"><feGaussianBlur stdDeviation="10" in="SourceGraphic"/></filter><filter id="f" width="119.9%" height="117.4%" x="-9.9%" y="-8.7%" filterUnits="objectBoundingBox"><feGaussianBlur stdDeviation="10" in="SourceGraphic"/></filter><linearGradient id="g" x1="50%" x2="50%" y1="0%" y2="97.246%"><stop stop-color="#FFF" stop-opacity="0" offset="0%"/><stop stop-color="#FFF" offset="92.558%"/></linearGradient></defs><g fill="none" fill-rule="evenodd"><mask id="c" fill="#fff"><use xlink:href="#a"/></mask><use fill="#FFF" xlink:href="#a"/><path stroke="url(#b)" stroke-width="2" d="M26.302 279.503l-.706-.707-.708.707.708.707.706-.707zM273.08 32.55l.707-.708-.707-.707-.708.707.708.707zM26.302 279.502l92.13-92.194c3.877-3.882 3.877-10.174 0-14.055l-92.836-92.9C24.583 79.29 24 77.863 24 76.343V36.07c0-3.217 2.606-5.825 5.82-5.825h40.246c1.52 0 2.944.584 4.02 1.614l92.82 92.88c3.88 3.88 10.168 3.88 14.046 0l92.128-92.19.11.11.707-.71c1.085-1.09 2.55-1.71 4.116-1.71h40.244c3.215 0 5.82 2.61 5.82 5.82v40.28c0 2-1.02 3.83-2.673 4.9l-.166.13-91.81 91.87c-3.878 3.88-3.878 10.18 0 14.06l92.835 92.9c1.158 1.11 1.815 2.61 1.815 4.23v40.27c0 3.21-2.606 5.82-5.82 5.82h-40.245c-1.612 0-3.117-.66-4.21-1.81l-92.85-92.92c-3.88-3.88-10.168-3.88-14.046 0l-91.81 91.88-.133.16c-1.066 1.655-2.894 2.68-4.898 2.68H29.82c-3.214 0-5.82-2.61-5.82-5.83v-40.27c0-1.57.62-3.037 1.705-4.12l.707-.71-.11-.11zM139.405 18.396c-3.098 3.1-3.098 8.126 0 11.226l29.05 29.07c3.098 3.1 8.12 3.1 11.216 0l29.06-29.07c3.1-3.1 3.1-8.126 0-11.226l-29.05-29.07c-3.1-3.1-8.12-3.1-11.21 0l-29.05 29.07z" filter="url(#d)" mask="url(#c)"/><path stroke="url(#b)" stroke-width="2" d="M628.302 120.503l-.706-.707-.708.707.708.707.706-.707zM875.08-126.45l.707-.708-.707-.707-.708.707.708.707zM628.302 120.502l92.13-92.194c3.877-3.882 3.877-10.174 0-14.055l-92.836-92.9c-1.013-1.063-1.596-2.49-1.596-4.01v-40.274c0-3.22 2.606-5.83 5.82-5.83h40.246c1.52 0 2.944.58 4.02 1.61l92.82 92.88c3.88 3.88 10.168 3.88 14.046 0l92.128-92.2.11.11.707-.71c1.085-1.09 2.55-1.71 4.116-1.71h40.244c3.215 0 5.82 2.61 5.82 5.82v40.27c0 2.01-1.02 3.84-2.673 4.9l-.166.13-91.81 91.873c-3.878 3.88-3.878 10.17 0 14.05l92.835 92.9c1.158 1.11 1.815 2.615 1.815 4.23v40.28c0 3.213-2.606 5.822-5.82 5.822h-40.245c-1.612 0-3.117-.66-4.21-1.8l-92.85-92.92c-3.88-3.88-10.168-3.88-14.046 0l-91.81 91.88-.133.17c-1.066 1.655-2.894 2.676-4.898 2.676H631.82c-3.214 0-5.82-2.61-5.82-5.827v-40.27c0-1.57.62-3.04 1.705-4.12l.707-.71-.11-.11zm113.103-261.107c-3.098 3.1-3.098 8.126 0 11.226l29.05 29.07c3.098 3.1 8.12 3.1 11.216 0l29.06-29.07c3.1-3.1 3.1-8.12 0-11.22l-29.05-29.07c-3.1-3.1-8.12-3.1-11.21 0l-29.05 29.07z" filter="url(#e)" mask="url(#c)"/><path stroke="url(#b)" stroke-width="2" d="M411.302 514.503l-.706-.707-.708.707.708.707.706-.707zM658.08 267.55l.707-.708-.707-.707-.708.707.708.707zM411.302 514.502l92.13-92.194c3.877-3.882 3.877-10.174 0-14.055l-92.836-92.9c-1.013-1.063-1.596-2.49-1.596-4.01V271.07c0-3.217 2.606-5.825 5.82-5.825h40.246c1.52 0 2.944.584 4.02 1.614l92.82 92.88c3.88 3.88 10.168 3.88 14.046 0l92.128-92.2.11.11.707-.71c1.085-1.09 2.55-1.71 4.116-1.71h40.244c3.215 0 5.82 2.61 5.82 5.82v40.27c0 2-1.02 3.83-2.673 4.9l-.166.13-91.81 91.87c-3.878 3.88-3.878 10.17 0 14.06l92.835 92.9c1.158 1.11 1.815 2.61 1.815 4.23v40.28c0 3.21-2.606 5.82-5.82 5.82h-40.245c-1.612 0-3.117-.66-4.21-1.81l-92.85-92.92c-3.88-3.88-10.168-3.88-14.046 0l-91.81 91.876-.133.165c-1.066 1.65-2.894 2.67-4.898 2.67H414.82c-3.214 0-5.82-2.61-5.82-5.827V519.4c0-1.57.62-3.033 1.705-4.12l.707-.706-.11-.11zm113.103-261.107c-3.098 3.1-3.098 8.126 0 11.226l29.05 29.07c3.098 3.1 8.12 3.1 11.216 0l29.06-29.07c3.1-3.1 3.1-8.12 0-11.22l-29.05-29.07c-3.1-3.1-8.12-3.1-11.21 0l-29.05 29.07z" filter="url(#f)" mask="url(#c)"/></g></svg>
