<svg xmlns="http://www.w3.org/2000/svg" viewBox="0 0 1000 1000"><defs><linearGradient id="a" x1="2.498%" x2="99.764%" y1="2.474%" y2="98.786%"><stop stop-color="#22D56D" offset="0%"/><stop stop-color="#72FFC7" offset="100%"/></linearGradient></defs><g fill="none" fill-rule="evenodd"><path fill="url(#a)" d="M270.51 257.408L97.27 84.168l-93.103 93.1 173.24 173.242c6.51 6.51 6.51 17.062 0 23.57L4.167 547.322l93.103 93.102 173.24-173.24c6.51-6.51 17.062-6.51 23.57 0l173.242 173.24 93.102-93.102-173.24-173.242c-6.51-6.508-6.51-17.06 0-23.57l173.24-173.24-93.102-93.103-173.242 173.24c-6.508 6.51-17.06 6.51-23.57 0z" transform="translate(218 100)"/><path fill="#1B5E18" d="M231.372 180.643h75.1c7.03 0 12.73 5.7 12.73 12.73v75.1c0 7.03-5.7 12.73-12.73 12.73h-75.1c-7.03 0-12.73-5.7-12.73-12.73v-75.1c0-7.03 5.7-12.73 12.73-12.73zm463.155 463.155h75.1c7.03 0 12.73 5.7 12.73 12.73v75.1c0 7.03-5.7 12.73-12.73 12.73h-75.1c-7.03 0-12.73-5.7-12.73-12.73v-75.1c0-7.03 5.7-12.73 12.73-12.73zm-463.155 0h75.1c7.03 0 12.73 5.7 12.73 12.73v75.1c0 7.03-5.7 12.73-12.73 12.73h-75.1c-7.03 0-12.73-5.7-12.73-12.73v-75.1c0-7.03 5.7-12.73 12.73-12.73zm463.155-463.155h75.1c7.03 0 12.73 5.7 12.73 12.73v75.1c0 7.03-5.7 12.73-12.73 12.73h-75.1c-7.03 0-12.73-5.7-12.73-12.73v-75.1c0-7.03 5.7-12.73 12.73-12.73z"/><path fill="url(#a)" d="M216.548 59.093l54.212-54.21c6.508-6.51 17.06-6.51 23.57 0l54.21 54.21c6.51 6.51 6.51 17.062 0 23.57l-54.21 54.212c-6.51 6.51-17.062 6.51-23.57 0l-54.212-54.212c-6.51-6.508-6.51-17.06 0-23.57z" transform="translate(218 100)"/><path fill="#1B5E18" d="M218 898.84v-78.007h30.23c7.668.072 13.43 1.998 17.28 5.78 3.89 3.815 5.833 8.862 5.833 15.14.07 3.21-.696 6.278-2.3 9.203-.82 1.39-1.998 2.71-3.532 3.96-1.53 1.32-3.42 2.514-5.67 3.584v.214c4.25 1.105 7.46 3.335 9.63 6.688 2.04 3.46 3.05 7.222 3.05 11.29-.07 6.74-2.17 12.073-6.31 15.996-4.1 4.102-9.22 6.153-15.35 6.153H218zm30.015-34.616h-18.19v23.435h18.19c4.388-.08 7.598-1.27 9.63-3.59 2.034-2.29 3.05-5 3.05-8.13 0-3.21-1.016-5.96-3.05-8.24-2.032-2.25-5.242-3.41-9.63-3.48zm-1.123-32.85h-17.068v22.31h17.068c4.316 0 7.49-1.123 9.523-3.37 2.07-2.07 3.104-4.673 3.104-7.812 0-3.14-1.04-5.796-3.11-7.972-2.04-2.033-5.21-3.085-9.53-3.157zm112.612 39.538h22.793l-11.29-34.08h-.214l-11.29 34.08zm32.21 27.93l-6.047-17.443H356.08l-5.992 17.44h-12.52l28.357-78.01h9.898l28.356 78.01h-12.47zm78.262-26.432c.072 8.204 2.783 14.714 8.133 19.53 5.24 4.957 11.77 7.472 19.58 7.543 7.95-.07 14.53-2.586 19.74-7.544 5.17-4.82 7.83-11.33 7.97-19.53v-51.58h-11.82v50.29c-.07 5.31-1.57 9.36-4.5 12.14-3 2.92-6.8 4.38-11.4 4.38-4.6 0-8.367-1.464-11.29-4.388-2.998-2.785-4.53-6.83-4.6-12.148v-50.29h-11.82v51.58zm143.163-41.037v23.65h17.87c4.42-.072 7.74-1.357 9.95-3.853 2.17-2.32 3.26-5.172 3.26-8.56-.07-4.067-1.38-7.01-3.91-8.83-2-1.604-4.89-2.407-8.67-2.407h-18.51zm-11.83 67.467v-78.004h30.44c6.49 0 11.79 1.712 15.89 5.137 4.96 3.89 7.54 9.435 7.76 16.64-.15 10.594-5.18 17.8-15.09 21.615l18.08 34.617h-14.07l-16.11-33.33h-15.08v33.33h-11.82zm126.25-26.43c.07 8.207 2.78 14.717 8.13 19.53 5.24 4.96 11.77 7.475 19.58 7.546 7.95-.07 14.53-2.586 19.74-7.544 5.17-4.815 7.83-11.325 7.97-19.53v-51.576h-11.82v50.293c-.07 5.31-1.57 9.36-4.496 12.14-2.996 2.92-6.794 4.38-11.396 4.38-4.6 0-8.364-1.468-11.29-4.39-2.995-2.78-4.53-6.83-4.6-12.148v-50.29h-11.82V872.4z"/></g></svg>